PathFileType	4	(X/Y/Z)	./resultDataOpenSim/trcMotMarkerGrf/sub10/qtm-02-07.trc
DataRate	CameraRate	NumFrames	NumMarkers	Units	OrigDataRate	OrigDataStartFrame	OrigNumFrames
250.000000	250.000000	6	24	m	250.000000	386	514
Frame#	Time	L.Toe.Tip			R.Toe.Tip			L.Ankle.Lat			R.Ankle.Lat			L.Ankle.Med			R.Ankle.Med			L.Heel			R.Heel			L.Knee.Lat			R.Knee.Lat			L.Knee.Med			R.Knee.Med			L.Thigh.Upper			R.Thigh.Upper			L.ASIS			R.ASIS			V.Sacral			L.Acromium			R.Acromium			C7			L.Elbow			R.Elbow			L.Wrist.Lat			R.Wrist.Lat
		X1	Y1	Z1	X2	Y2	Z2	X3	Y3	Z3	X4	Y4	Z4	X5	Y5	Z5	X6	Y6	Z6	X7	Y7	Z7	X8	Y8	Z8	X9	Y9	Z9	X10	Y10	Z10	X11	Y11	Z11	X12	Y12	Z12	X13	Y13	Z13	X14	Y14	Z14	X15	Y15	Z15	X16	Y16	Z16	X17	Y17	Z17	X18	Y18	Z18	X19	Y19	Z19	X20	Y20	Z20	X21	Y21	Z21	X22	Y22	Z22	X23	Y23	Z23	X24	Y24	Z24

386	1.54	0.96805646	0.058564411	-0.1000206	0.79688415	0.038474517	0.05647739	0.84066903	0.10362154	-0.10271409	0.65605465	0.054134139	0.10180916	0.86969022	0.12430672	-0.022597526	0.67107693	0.082020292	0.017131753	0.7822351	0.08131267	-0.046093386	0.60228042	0.031343049	0.058931803	0.93462622	0.48122348	-0.13909539	0.74831945	0.44858999	0.13812437	0.96890848	0.4598911	-0.021112431	0.74469419	0.45427609	0.0090520085	0.7979484	0.83541667	-0.18923893	0.76851082	0.86556292	0.19337085	0.83729677	0.95274598	-0.11996438	0.83791358	0.9620086	0.12307937	0.63958993	0.95528863	-0.0049745629	0.73789526	1.4256692	-0.16319114	0.73203478	1.4213977	0.15948549	0.65436338	1.443764	-0.0071551011	0.64545711	1.0950287	-0.2251561	0.69610395	1.0678475	0.21892875	0.77346191	0.88718135	-0.23973476	0.87523767	0.91664551	0.29975439
387	1.544	0.98642579	0.059196411	-0.10092294	0.7967985	0.038487801	0.056501501	0.85784164	0.10040804	-0.10277684	0.65607954	0.054138958	0.10176733	0.8869009	0.1219784	-0.022626728	0.67126115	0.082072366	0.017192146	0.80024859	0.076376938	-0.046155912	0.60226136	0.031394176	0.0588784	0.94219896	0.48117513	-0.1385926	0.74995916	0.44829993	0.13822434	0.97610166	0.46000885	-0.021025785	0.74724393	0.45390215	0.0094778481	0.80428594	0.83530495	-0.18934802	0.77190029	0.86512334	0.19331869	0.84295032	0.95246739	-0.11968179	0.84184972	0.96155716	0.12351125	0.64529804	0.95517475	-0.0059200106	0.7431116	1.4248958	-0.16316881	0.73681933	1.4209341	0.15956331	0.65944177	1.4432506	-0.0072494783	0.64842123	1.0949223	-0.22555672	0.70281847	1.0669406	0.21894465	0.7755982	0.88639891	-0.24109051	0.88453402	0.91811652	0.29936452
388	1.548	1.0047442	0.059990846	-0.1018605	0.79671641	0.038492507	0.056508	0.8750706	0.09736561	-0.10290491	0.6561076	0.054146979	0.10172502	0.90474006	0.11966865	-0.0233916	0.67133176	0.082175066	0.017191752	0.81850585	0.07161974	-0.046254717	0.60226014	0.031431933	0.058833035	0.94961826	0.48097593	-0.13812367	0.75165163	0.4479934	0.13829674	0.98324776	0.45994791	-0.021125328	0.74995222	0.45351745	0.0099602279	0.81055039	0.83512822	-0.18941452	0.77532568	0.86466498	0.19322205	0.84861009	0.95213145	-0.1194519	0.84580319	0.96107064	0.12388788	0.65121813	0.95514833	-0.0069879325	0.74833721	1.4240647	-0.16315319	0.74161587	1.4204106	0.15964277	0.66451814	1.4427087	-0.0073666624	0.65124595	1.0947344	-0.22618387	0.70971519	1.0660082	0.21895665	0.77772463	0.88561637	-0.24245624	0.89383114	0.91956551	0.29894338
389	1.552	1.0230007	0.060953792	-0.10283429	0.79666367	0.038487555	0.056518781	0.89233985	0.094509625	-0.10309431	0.65614471	0.054156083	0.1016798	0.92303039	0.11739961	-0.024666582	0.67135487	0.082277058	0.017121461	0.83697465	0.067158381	-0.04637222	0.60225931	0.031473327	0.058781877	0.95663372	0.48056653	-0.13782436	0.75340746	0.44766544	0.13834244	0.99044566	0.45972959	-0.021322937	0.75258094	0.45314461	0.010282265	0.81680789	0.83489712	-0.18946702	0.77883045	0.86417233	0.19302153	0.85429486	0.95174309	-0.11927023	0.84978548	0.96055269	0.12422517	0.65690611	0.95495647	-0.0081580531	0.7535692	1.4231841	-0.16314625	0.74642298	1.419829	0.15972004	0.66959299	1.4421323	-0.007494916	0.65395308	1.0944687	-0.22701273	0.71673786	1.0650537	0.21894471	0.77984209	0.88482281	-0.24381924	0.90313331	0.92099464	0.29849303
390	1.556	1.0411745	0.062080817	-0.1038384	0.79660941	0.038473602	0.056524239	0.90964254	0.091853162	-0.10332869	0.65619301	0.054165264	0.10162895	0.9411922	0.11524833	-0.025867501	0.67141809	0.082294316	0.017005015	0.85545539	0.063107309	-0.046653039	0.60224518	0.031521687	0.058731717	0.96324877	0.47994265	-0.13769936	0.75523388	0.44731512	0.13836328	0.99753735	0.45937214	-0.021524442	0.75507321	0.45278309	0.010395187	0.8230949	0.8346132	-0.18952815	0.78246232	0.86362716	0.19267158	0.86002411	0.95130528	-0.1191294	0.85379851	0.96000756	0.12453736	0.66205337	0.9544354	-0.0093531809	0.75880968	1.4222657	-0.16314687	0.75124294	1.4191913	0.15978931	0.67467141	1.4415132	-0.0076161262	0.65668552	1.0941655	-0.22783899	0.72380503	1.0640684	0.21893052	0.78187931	0.88399133	-0.2451341	0.91242613	0.92239893	0.29801286
391	1.56	1.0592461	0.063367308	-0.10486742	0.79651042	0.038462415	0.056508314	0.92695639	0.089413899	-0.10360322	0.65619013	0.054196702	0.10160913	0.95880381	0.11334565	-0.026603906	0.67155201	0.082203419	0.016885107	0.87372524	0.059500544	-0.047284761	0.60220972	0.03157333	0.058686632	0.96961827	0.47913707	-0.13768005	0.75713001	0.44694065	0.13834932	1.004334	0.45888964	-0.021664759	0.75751452	0.45241816	0.0103794	0.82940574	0.83427456	-0.1895983	0.7861965	0.86302429	0.19224749	0.86579502	0.95081665	-0.1190256	0.85783762	0.95943611	0.12482601	0.6667377	0.95361169	-0.010521849	0.76406346	1.4213158	-0.16315253	0.75607852	1.4184982	0.15984708	0.679757	1.4408512	-0.0077221557	0.65958184	1.0938677	-0.22846587	0.73085246	1.0630431	0.21894434	0.78376952	0.88309971	-0.24636113	0.9216819	0.92376477	0.29749765
